<svg width="216.278" height="87.5" viewBox="0 0 216.278 87.5" xmlns="http://www.w3.org/2000/svg"><g id="svgGroup" stroke-linecap="round" fill-rule="evenodd" font-size="9pt" stroke="#000" stroke-width="0.25mm" fill="#000" style="stroke:#000;stroke-width:0.25mm;fill:#000"><path d="M 65 44.5 L 68 54.1 A 50.528 50.528 0 0 0 69.249 52.72 Q 69.925 51.946 70.655 51.057 A 92.589 92.589 0 0 0 71.55 49.95 Q 73.5 47.5 75.9 44.2 L 84.8 32.2 A 401.778 401.778 0 0 1 90.553 24.891 Q 101.799 10.968 106.038 9.012 A 4.885 4.885 0 0 1 106.3 8.9 Q 108.1 8.2 109.9 8.2 Q 111.5 8.2 112.619 8.744 A 4.219 4.219 0 0 1 113.15 9.05 Q 114.4 9.9 114.4 11 A 1.714 1.714 0 0 1 113.431 12.58 Q 113.061 12.786 112.549 12.919 A 7.1 7.1 0 0 1 111.5 13.1 A 15.806 15.806 0 0 0 109.915 14.164 Q 106.597 16.638 99.8 23.2 Q 96.222 26.689 93.884 29.097 A 150.03 150.03 0 0 0 93.35 29.65 Q 90.9 32.2 90 33.5 Q 78.8 49.1 69.3 57.5 A 26.142 26.142 0 0 0 73.583 63.75 A 18.464 18.464 0 0 0 87.6 69.6 Q 92.2 69.6 96.95 67.65 Q 101.7 65.7 105.75 62.5 A 30.249 30.249 0 0 0 110.398 57.977 A 26.277 26.277 0 0 0 112.3 55.35 A 17.473 17.473 0 0 0 114.009 51.903 A 12.993 12.993 0 0 0 114.8 47.5 A 10.815 10.815 0 0 0 112.251 40.516 A 13.875 13.875 0 0 0 111.9 40.1 Q 109 36.8 104.8 35.4 L 103.3 35.2 Q 101.8 35 98.7 34.6 A 26.83 26.83 0 0 1 97.223 34.373 Q 95.052 33.971 94.344 33.352 A 0.865 0.865 0 0 1 94 32.7 A 1.445 1.445 0 0 1 94.315 31.813 Q 94.602 31.434 95.15 31.1 A 4.923 4.923 0 0 1 96.377 30.557 A 4.13 4.13 0 0 1 97.5 30.4 A 4.984 4.984 0 0 1 98.281 30.466 Q 98.66 30.526 99.081 30.642 A 10.075 10.075 0 0 1 99.6 30.8 Q 100.761 31.187 101.689 31.528 A 52.618 52.618 0 0 1 101.75 31.55 L 102.7 31.9 Q 103.494 31.999 104.484 32.049 A 36.021 36.021 0 0 0 104.5 32.05 Q 105.5 32.1 106.5 32.1 A 35.985 35.985 0 0 0 113.545 31.436 A 29.62 29.62 0 0 0 118.5 30 A 20.388 20.388 0 0 0 122.071 28.158 Q 124.181 26.771 125.559 24.967 A 12.193 12.193 0 0 0 126.1 24.2 Q 128.5 20.5 128.5 15.6 A 12.789 12.789 0 0 0 128.066 12.178 A 9.355 9.355 0 0 0 125.35 7.7 A 16.01 16.01 0 0 0 121.173 4.96 Q 119.362 4.124 117.19 3.585 A 26.91 26.91 0 0 0 117.05 3.55 A 44.391 44.391 0 0 0 109.746 2.435 A 53.785 53.785 0 0 0 105.9 2.3 A 72.254 72.254 0 0 0 84.311 5.491 A 68.485 68.485 0 0 0 83.65 5.7 Q 73.1 9.1 65.4 17 Q 60.908 21.644 59.836 25.129 A 7.049 7.049 0 0 0 59.5 27.2 A 9.313 9.313 0 0 0 59.787 29.565 A 7.233 7.233 0 0 0 61 32.1 A 11.704 11.704 0 0 0 61.641 32.835 A 13.59 13.59 0 0 0 61.9 33.1 Q 62.4 33.6 63.1 34.1 Q 63.552 34.371 62.697 34.397 A 6.481 6.481 0 0 1 62.5 34.4 Q 57.609 33.296 56.576 28.768 A 12.008 12.008 0 0 1 56.3 26.1 Q 56.3 19.941 61.877 14.42 A 30.532 30.532 0 0 1 63.3 13.1 Q 68.7 8.4 75.65 5.5 Q 82.6 2.6 90.35 1.3 Q 98.1 0 105.7 0 Q 111.1 0 116.1 0.8 A 37.479 37.479 0 0 1 121.547 2.076 A 30.448 30.448 0 0 1 125.1 3.45 Q 129.1 5.3 131.45 8.3 A 10.942 10.942 0 0 1 133.644 13.524 A 14.659 14.659 0 0 1 133.8 15.7 A 18.925 18.925 0 0 1 133.374 19.834 Q 132.709 22.805 131.007 24.992 A 11.84 11.84 0 0 1 130.5 25.6 Q 127.2 29.3 121.6 31.3 Q 115 33.6 107.4 33.7 A 16.279 16.279 0 0 1 111.566 34.421 A 13.575 13.575 0 0 1 114.75 35.9 Q 117.9 37.9 119.65 41.1 Q 121.4 44.3 121.4 48.1 Q 121.4 53.2 118.35 57.55 A 25.873 25.873 0 0 1 112.907 63.183 A 31.774 31.774 0 0 1 110.2 65.05 A 44.458 44.458 0 0 1 99.38 69.839 A 49.465 49.465 0 0 1 99 69.95 Q 92.9 71.7 86.8 71.7 Q 76.56 71.7 70.563 67.164 A 18.631 18.631 0 0 1 65.3 60.9 A 99.23 99.23 0 0 1 61.147 64.198 Q 54.055 69.5 50.6 69.5 A 3.426 3.426 0 0 1 47.862 68.236 A 4.98 4.98 0 0 1 47.35 67.5 A 8.705 8.705 0 0 1 46.218 63.617 A 10.482 10.482 0 0 1 46.2 63 A 19.504 19.504 0 0 1 46.895 58.034 Q 47.501 55.736 48.636 53.208 A 47.533 47.533 0 0 1 50.8 49 A 45.729 45.729 0 0 1 54.57 43.381 A 41.494 41.494 0 0 1 55.2 42.6 A 9.744 9.744 0 0 1 56.819 41.025 Q 58.189 39.99 59.726 39.764 A 5.99 5.99 0 0 1 60.6 39.7 Q 63.353 39.7 64.845 44.027 A 17.154 17.154 0 0 1 65 44.5 Z M 0.9 54.9 L 14.7 38.7 A 10.694 10.694 0 0 1 16.438 37.07 Q 17.744 36.112 19.16 35.824 A 6.204 6.204 0 0 1 20.4 35.7 A 4.311 4.311 0 0 1 21.239 35.774 Q 22.557 36.037 22.686 37.23 A 2.511 2.511 0 0 1 22.7 37.5 A 1.646 1.646 0 0 1 22.416 38.415 A 2.415 2.415 0 0 1 22.1 38.8 A 35.973 35.973 0 0 0 20.829 40.072 Q 19.439 41.528 17.699 43.602 A 116.877 116.877 0 0 0 17.45 43.9 A 92.735 92.735 0 0 0 12.752 50.058 A 103.018 103.018 0 0 0 12.1 51 Q 9.5 54.8 7.75 58.25 A 25.16 25.16 0 0 0 6.904 60.084 Q 6 62.291 6 63.8 A 3.994 3.994 0 0 0 6.046 64.435 Q 6.234 65.6 7.2 65.6 Q 7.9 65.6 9.4 65.05 Q 10.9 64.5 13.4 62.75 Q 15.9 61 19.4 57.3 A 12.161 12.161 0 0 0 19.695 56.991 Q 20.425 56.205 22.274 54.076 A 482.723 482.723 0 0 0 22.6 53.7 Q 24.591 51.403 27.636 47.582 A 452.34 452.34 0 0 0 29.6 45.1 Q 37.02 35.873 39.553 35.423 A 1.414 1.414 0 0 1 39.8 35.4 A 5.982 5.982 0 0 1 41.1 35.529 Q 42.96 35.945 43.335 37.697 A 4.077 4.077 0 0 1 43.4 38.1 A 0.397 0.397 0 0 1 43.409 38.186 Q 43.409 39.108 40.044 43.029 A 103.214 103.214 0 0 1 39.2 44 A 435.483 435.483 0 0 0 36.575 47.206 Q 33.355 51.181 31.755 53.401 A 44.383 44.383 0 0 0 31.4 53.9 A 41.511 41.511 0 0 0 29.694 56.594 Q 28.179 59.222 27.71 61.18 A 6.993 6.993 0 0 0 27.5 62.8 A 4.776 4.776 0 0 0 27.557 63.576 Q 27.793 65 29 65 Q 30.5 65 32.85 63.55 Q 35.2 62.1 37.8 59.85 Q 40.4 57.6 42.85 55.15 A 97.194 97.194 0 0 0 45.071 52.859 Q 46.103 51.756 46.983 50.736 A 58.263 58.263 0 0 0 47.1 50.6 A 2.931 2.931 0 0 1 47.433 50.266 Q 47.622 50.106 47.811 50.017 A 1.131 1.131 0 0 1 48.3 49.9 A 0.864 0.864 0 0 1 48.537 49.93 Q 48.9 50.034 48.9 50.5 A 1.19 1.19 0 0 1 48.892 50.628 Q 48.878 50.755 48.84 50.93 A 5.828 5.828 0 0 1 48.8 51.1 A 1.218 1.218 0 0 1 48.684 51.387 Q 48.528 51.672 48.2 52 Q 46.6 53.8 44.1 56.45 A 89.016 89.016 0 0 1 39.419 61.049 A 98.457 98.457 0 0 1 38.7 61.7 Q 35.8 64.3 33.1 66 A 16.235 16.235 0 0 1 31.645 66.822 Q 30.024 67.622 28.747 67.693 A 4.427 4.427 0 0 1 28.5 67.7 Q 26.2 67.7 24.5 66.45 A 3.972 3.972 0 0 1 22.83 63.568 A 5.243 5.243 0 0 1 22.8 63 A 14.759 14.759 0 0 1 23.37 58.989 A 16.729 16.729 0 0 1 23.5 58.55 A 99.828 99.828 0 0 0 23.983 56.954 Q 24.166 56.327 24.321 55.764 A 49.453 49.453 0 0 0 24.6 54.7 A 107.068 107.068 0 0 1 21.775 57.884 Q 20.284 59.493 18.929 60.797 A 42.982 42.982 0 0 1 16.35 63.1 A 48.159 48.159 0 0 1 14.293 64.696 Q 12.069 66.32 10.4 67.05 Q 8.322 67.959 6.994 68.081 A 4.311 4.311 0 0 1 6.6 68.1 Q 2.1 68.1 2.1 62.4 A 9.006 9.006 0 0 1 2.29 60.631 Q 2.606 59.056 3.45 57.15 Q 4.713 54.297 6.983 51.137 A 48.449 48.449 0 0 1 7.3 50.7 L 5.5 52.4 A 48.862 48.862 0 0 0 4.08 53.802 Q 2.838 55.075 1.4 56.7 Q 1 57.1 0.4 57.1 Q 0 57.1 0 56.6 A 0.942 0.942 0 0 1 0.055 56.312 Q 0.2 55.871 0.732 55.129 A 13.434 13.434 0 0 1 0.9 54.9 Z M 198.1 62.4 L 203.1 52.5 L 195.6 60.1 A 67.393 67.393 0 0 1 193.505 62.112 Q 191.374 64.066 189.663 65.224 A 19.73 19.73 0 0 1 189.55 65.3 A 19.036 19.036 0 0 1 188.356 66.039 Q 187.183 66.701 186.318 66.907 A 3.116 3.116 0 0 1 185.6 67 A 7.144 7.144 0 0 1 182.694 66.359 A 10.26 10.26 0 0 1 180.8 65.25 A 8.422 8.422 0 0 1 179.451 64.042 Q 178.302 62.745 178.1 61.2 A 10.374 10.374 0 0 1 178.015 59.863 Q 178.015 53.659 185.142 45.689 A 63.849 63.849 0 0 1 187.8 42.9 Q 198.5 32.4 206.9 32.4 Q 209.2 32.4 210.5 33.5 A 2.882 2.882 0 0 1 211.096 34.222 Q 211.37 34.681 211.55 35.3 A 12.568 12.568 0 0 0 211.666 35.677 Q 211.887 36.356 212.039 36.475 A 0.101 0.101 0 0 0 212.1 36.5 Q 212.5 36.5 212.8 36.35 A 1.397 1.397 0 0 1 213.208 36.222 A 1.859 1.859 0 0 1 213.5 36.2 A 3.075 3.075 0 0 1 214.62 36.398 A 2.796 2.796 0 0 1 215.65 37.1 A 2.947 2.947 0 0 1 215.981 37.516 Q 216.278 37.973 216.278 38.431 A 1.477 1.477 0 0 1 216.2 38.9 A 2.018 2.018 0 0 1 216.068 39.364 Q 215.663 40.414 214.059 43.064 A 118.718 118.718 0 0 1 213.3 44.3 A 140.247 140.247 0 0 0 211.88 46.726 Q 211.259 47.81 210.589 49.016 A 263.435 263.435 0 0 0 209.2 51.55 Q 206.9 55.8 204.35 60.35 Q 201.8 64.9 199.4 68.85 A 108.849 108.849 0 0 1 197.688 71.582 Q 196.295 73.728 195.1 75.3 A 54.825 54.825 0 0 1 190.697 80.494 Q 185.582 85.758 180.76 87.067 A 12.024 12.024 0 0 1 177.6 87.5 A 6.308 6.308 0 0 1 172.902 85.447 A 8.774 8.774 0 0 1 172.5 85 A 9.903 9.903 0 0 1 170.975 82.579 A 8.12 8.12 0 0 1 170.3 79.6 Q 170.495 78.819 170.818 78.546 A 0.578 0.578 0 0 1 171.2 78.4 A 0.455 0.455 0 0 1 171.58 78.618 Q 171.813 78.947 171.886 79.772 A 7.381 7.381 0 0 1 171.9 79.95 A 3.841 3.841 0 0 0 172.374 81.532 Q 172.66 82.064 173.117 82.59 A 8.008 8.008 0 0 0 173.5 83 Q 175 84.5 176.4 84.5 A 10.588 10.588 0 0 0 181.117 83.309 Q 184.388 81.691 187.835 77.872 A 41.673 41.673 0 0 0 188.6 77 Q 190.9 74.3 193.35 70.65 A 67.616 67.616 0 0 0 196.059 66.243 A 85.558 85.558 0 0 0 198.1 62.4 Z M 156.8 19.6 L 149.8 29 Q 145.7 34.5 142.4 39.15 Q 139.564 43.146 137.393 46.441 A 173.629 173.629 0 0 0 136.7 47.5 A 902.403 902.403 0 0 0 135.509 49.391 Q 134.886 50.383 134.198 51.484 A 1478.454 1478.454 0 0 0 134 51.8 Q 132.5 54.2 131.35 56.75 A 12.822 12.822 0 0 0 130.291 60.442 A 11.741 11.741 0 0 0 130.2 61.9 Q 130.2 63.1 130.9 64.05 Q 131.442 64.786 132.644 64.952 A 5.539 5.539 0 0 0 133.4 65 A 8.143 8.143 0 0 0 135.595 64.663 Q 137.639 64.087 140.255 62.526 A 38.501 38.501 0 0 0 141.8 61.55 A 40.697 40.697 0 0 0 146.814 57.586 Q 149.47 55.145 152.1 52 Q 152.6 51.4 153.2 50.9 Q 153.678 50.502 154.029 50.421 A 0.761 0.761 0 0 1 154.2 50.4 A 0.589 0.589 0 0 1 154.416 50.436 Q 154.673 50.537 154.697 50.917 A 1.292 1.292 0 0 1 154.7 51 Q 154.7 51.3 154.05 52.15 Q 153.552 52.801 153.201 53.247 A 43.865 43.865 0 0 1 153 53.5 L 150.6 56.2 Q 148.6 58.4 145.85 61 A 32.872 32.872 0 0 1 140.831 64.923 A 30.066 30.066 0 0 1 140.05 65.4 Q 137 67.2 133.9 67.2 Q 131 67.2 128.5 65.75 A 4.807 4.807 0 0 1 126.111 62.248 A 7.756 7.756 0 0 1 126 60.9 A 16.645 16.645 0 0 1 126.471 57.122 Q 126.888 55.337 127.675 53.354 A 40.999 40.999 0 0 1 129.35 49.7 Q 132.7 43.2 137 36.2 A 184.067 184.067 0 0 1 141.128 29.773 Q 149.614 17.2 153.6 17.2 Q 154.6 17.2 155.65 17.95 A 3.903 3.903 0 0 1 156.19 18.409 Q 156.46 18.688 156.612 18.986 A 1.767 1.767 0 0 1 156.8 19.6 Z M 156.5 67.2 L 154.9 67.2 A 4.162 4.162 0 0 1 151.589 65.678 A 6.002 6.002 0 0 1 151 64.85 Q 149.655 62.593 149.602 60.474 A 6.944 6.944 0 0 1 149.6 60.3 A 12 12 0 0 1 150.288 56.545 Q 152.047 51.263 158.3 43.5 Q 167.1 32.6 172.5 32.6 A 6.921 6.921 0 0 1 174.549 32.877 Q 176.802 33.576 177.391 36.035 A 8.452 8.452 0 0 1 177.6 38 A 9.622 9.622 0 0 1 177.541 39.039 A 11.735 11.735 0 0 1 177.45 39.7 Q 177.3 40.6 177.1 41.6 A 0.5 0.5 0 0 0 177.296 41.765 Q 177.563 41.9 178.1 41.9 A 9.617 9.617 0 0 0 180.266 41.633 Q 181.317 41.389 182.485 40.924 A 23.374 23.374 0 0 0 184.5 40 A 1.463 1.463 0 0 1 184.059 40.847 Q 182.737 42.31 177.453 44.545 A 85.666 85.666 0 0 1 176.6 44.9 Q 177.571 47.812 171.689 55.397 A 84.711 84.711 0 0 1 170 57.5 Q 164.439 64.328 160.018 66.35 A 8.478 8.478 0 0 1 156.5 67.2 Z M 200.5 52 L 211.1 37.4 Q 210.505 36.012 208.633 36 A 5.11 5.11 0 0 0 208.6 36 A 11.111 11.111 0 0 0 204.665 36.819 Q 199.394 38.833 192 45.8 A 65.39 65.39 0 0 0 188.181 49.696 Q 182.198 56.38 182.198 61.102 A 6.953 6.953 0 0 0 182.3 62.3 A 4.851 4.851 0 0 0 182.598 63.264 Q 183.218 64.672 184.642 64.7 A 2.96 2.96 0 0 0 184.7 64.7 A 7.889 7.889 0 0 0 188.186 63.751 Q 192.743 61.473 199.106 53.733 A 105.469 105.469 0 0 0 200.5 52 Z M 156.7 64.2 A 6.551 6.551 0 0 0 159.445 63.513 Q 162.903 61.904 167.505 56.529 A 64.396 64.396 0 0 0 167.7 56.3 A 72.119 72.119 0 0 0 170.193 53.19 Q 173.649 48.602 174.124 45.985 A 4.401 4.401 0 0 0 174.2 45.2 A 5.116 5.116 0 0 1 173.294 44.524 Q 171.963 43.317 170.2 40.6 A 4.389 4.389 0 0 0 168.247 41.145 Q 165.15 42.714 160.4 48.8 A 57.847 57.847 0 0 0 157.873 52.244 Q 154.145 57.777 154.3 61.1 A 6.18 6.18 0 0 0 154.431 62.232 Q 154.867 64.2 156.7 64.2 Z M 64.2 58.1 L 63.9 57.7 A 129.8 129.8 0 0 0 62.572 53.521 Q 59.876 45.549 58.018 44.545 A 1.088 1.088 0 0 0 57.5 44.4 Q 57.4 44.4 57 44.6 Q 51.193 52.996 49.943 58.806 A 14.267 14.267 0 0 0 49.6 61.8 A 9.045 9.045 0 0 0 49.677 62.935 Q 49.806 63.95 50.15 65.2 Q 50.7 67.2 51.9 67.2 Q 54.504 67.2 61.013 61.176 A 115.051 115.051 0 0 0 64.2 58.1 Z" vector-effect="non-scaling-stroke"/></g></svg>